<svg width="24" height="24" viewBox="0 0 24 24" fill="none" xmlns="http://www.w3.org/2000/svg">
  <path d="M12 8.25C9.92893 8.25 8.25 9.92893 8.25 12C8.25 14.0711 9.92893 15.75 12 15.75C14.0711 15.75 15.75 14.0711 15.75 12C15.75 9.92893 14.0711 8.25 12 8.25Z" stroke="#E8EDF4" stroke-width="1.5"/>
  <path d="M19 13.1V10.9L16.964 10.285C16.7863 9.70942 16.4767 9.18329 16.06 8.748L16.56 6.675L14.325 5.44L12.87 7.005C12.2917 6.91919 11.7043 6.91919 11.126 7.005L9.67 5.44L7.435 6.675L7.936 8.748C7.51854 9.18289 7.20853 9.70913 7.03 10.285L5 10.9V13.1L7.03 13.715C7.20853 14.2909 7.51854 14.8171 7.936 15.252L7.435 17.325L9.67 18.56L11.126 16.995C11.7043 17.0808 12.2917 17.0808 12.87 16.995L14.325 18.56L16.56 17.325L16.06 15.252C16.4767 14.8167 16.7863 14.2906 16.964 13.715L19 13.1Z" stroke="#E8EDF4" stroke-width="1.5" stroke-linejoin="round"/>
</svg>
